<mxfile host="app.diagrams.net" modified="2021-03-12T23:25:36.964Z" agent="5.0 (Windows NT 10.0; Win64; x64) AppleWebKit/537.36 (KHTML, like Gecko) Chrome/87.0.4280.141 Safari/537.36 OPR/73.0.3856.408" etag="T1GeqtQ2c0CazvxIvHJI" version="14.4.8" type="github">
  <diagram id="wXytYz6GHPizOOvA7uhq" name="Page-1">
    <mxGraphModel dx="1237" dy="548" grid="1" gridSize="10" guides="1" tooltips="1" connect="1" arrows="1" fold="1" page="1" pageScale="1" pageWidth="850" pageHeight="1100" math="0" shadow="0">
      <root>
        <mxCell id="0" />
        <mxCell id="1" parent="0" />
        <mxCell id="tQTTjKAgbpAH1Arpb6nN-27" style="edgeStyle=orthogonalEdgeStyle;rounded=0;orthogonalLoop=1;jettySize=auto;html=1;exitX=0.5;exitY=1;exitDx=0;exitDy=0;exitPerimeter=0;entryX=0.5;entryY=0.095;entryDx=0;entryDy=0;entryPerimeter=0;" edge="1" parent="1" source="CeHKK5YrfXnOBCgka7Jv-26" target="CeHKK5YrfXnOBCgka7Jv-22">
          <mxGeometry relative="1" as="geometry">
            <mxPoint x="80" y="310" as="targetPoint" />
          </mxGeometry>
        </mxCell>
        <mxCell id="CeHKK5YrfXnOBCgka7Jv-1" value="" style="rounded=1;arcSize=10;dashed=0;fillColor=none;gradientColor=none;strokeWidth=2;" parent="1" vertex="1">
          <mxGeometry x="365" y="65.76326461413264" width="660" height="524.6288145937881" as="geometry" />
        </mxCell>
        <mxCell id="CeHKK5YrfXnOBCgka7Jv-2" value="" style="dashed=0;html=1;shape=mxgraph.aws3.cloud;fillColor=#F58536;gradientColor=none;dashed=0;" parent="1" vertex="1">
          <mxGeometry x="394.18" y="50" width="51.82" height="38.35" as="geometry" />
        </mxCell>
        <mxCell id="CeHKK5YrfXnOBCgka7Jv-3" value="US East (N. Virginia) [us-east-1]" style="text;whiteSpace=wrap;html=1;" parent="1" vertex="1">
          <mxGeometry x="450.0021568627451" y="65.76506849315066" width="219.196862745098" height="28.153424657534252" as="geometry" />
        </mxCell>
        <mxCell id="CeHKK5YrfXnOBCgka7Jv-6" style="edgeStyle=orthogonalEdgeStyle;rounded=0;orthogonalLoop=1;jettySize=auto;html=1;entryX=0;entryY=0.5;entryDx=0;entryDy=0;" parent="1" source="CeHKK5YrfXnOBCgka7Jv-7" target="tQTTjKAgbpAH1Arpb6nN-19" edge="1">
          <mxGeometry relative="1" as="geometry">
            <mxPoint x="905.9974509803924" y="460.55000000000007" as="targetPoint" />
          </mxGeometry>
        </mxCell>
        <mxCell id="CeHKK5YrfXnOBCgka7Jv-7" value="Lambda - usuarios&amp;nbsp;&lt;br&gt;-&amp;nbsp; node.js" style="outlineConnect=0;dashed=0;verticalLabelPosition=bottom;verticalAlign=top;align=center;html=1;shape=mxgraph.aws3.lambda;fillColor=#F58534;gradientColor=none;" parent="1" vertex="1">
          <mxGeometry x="733.0017647058825" y="426.2995890410958" width="53.29098039215685" height="68.37260273972603" as="geometry" />
        </mxCell>
        <mxCell id="CeHKK5YrfXnOBCgka7Jv-9" style="edgeStyle=orthogonalEdgeStyle;rounded=0;orthogonalLoop=1;jettySize=auto;html=1;entryX=0;entryY=0.5;entryDx=0;entryDy=0;entryPerimeter=0;" parent="1" source="tQTTjKAgbpAH1Arpb6nN-12" target="CeHKK5YrfXnOBCgka7Jv-22" edge="1">
          <mxGeometry relative="1" as="geometry">
            <mxPoint x="268.7999267578125" y="326.35" as="sourcePoint" />
          </mxGeometry>
        </mxCell>
        <mxCell id="CeHKK5YrfXnOBCgka7Jv-10" style="edgeStyle=orthogonalEdgeStyle;rounded=0;orthogonalLoop=1;jettySize=auto;html=1;entryX=0;entryY=0.5;entryDx=0;entryDy=0;entryPerimeter=0;" parent="1" source="tQTTjKAgbpAH1Arpb6nN-12" target="CeHKK5YrfXnOBCgka7Jv-26" edge="1">
          <mxGeometry relative="1" as="geometry">
            <mxPoint x="252" y="386.35" as="sourcePoint" />
          </mxGeometry>
        </mxCell>
        <mxCell id="tQTTjKAgbpAH1Arpb6nN-2" value="" style="edgeStyle=orthogonalEdgeStyle;rounded=0;orthogonalLoop=1;jettySize=auto;html=1;exitX=0.5;exitY=1;exitDx=0;exitDy=0;entryX=0.5;entryY=0;entryDx=0;entryDy=0;exitPerimeter=0;" edge="1" parent="1" source="tQTTjKAgbpAH1Arpb6nN-12" target="tQTTjKAgbpAH1Arpb6nN-7">
          <mxGeometry relative="1" as="geometry">
            <mxPoint x="579.79" y="249.35" as="sourcePoint" />
            <mxPoint x="579.79" y="356.3468493150684" as="targetPoint" />
          </mxGeometry>
        </mxCell>
        <mxCell id="CeHKK5YrfXnOBCgka7Jv-13" value="" style="outlineConnect=0;dashed=0;verticalLabelPosition=bottom;verticalAlign=top;align=center;html=1;shape=mxgraph.aws3.codecommit;fillColor=#759C3E;gradientColor=none;" parent="1" vertex="1">
          <mxGeometry x="399" y="517.35" width="37.02" height="45" as="geometry" />
        </mxCell>
        <mxCell id="CeHKK5YrfXnOBCgka7Jv-14" value="" style="outlineConnect=0;dashed=0;verticalLabelPosition=bottom;verticalAlign=top;align=center;html=1;shape=mxgraph.aws3.codedeploy;fillColor=#759C3E;gradientColor=none;" parent="1" vertex="1">
          <mxGeometry x="447.09000000000003" y="517.35" width="38.33" height="46" as="geometry" />
        </mxCell>
        <mxCell id="CeHKK5YrfXnOBCgka7Jv-15" value="" style="outlineConnect=0;dashed=0;verticalLabelPosition=bottom;verticalAlign=top;align=center;html=1;shape=mxgraph.aws3.codepipeline;fillColor=#759C3E;gradientColor=none;" parent="1" vertex="1">
          <mxGeometry x="493.41999999999996" y="517.35" width="38.33" height="46" as="geometry" />
        </mxCell>
        <mxCell id="CeHKK5YrfXnOBCgka7Jv-16" value="" style="outlineConnect=0;dashed=0;verticalLabelPosition=bottom;verticalAlign=top;align=center;html=1;shape=mxgraph.aws3.codestar;fillColor=#759C3E;gradientColor=none;" parent="1" vertex="1">
          <mxGeometry x="543.42" y="517.35" width="39.17" height="47" as="geometry" />
        </mxCell>
        <mxCell id="CeHKK5YrfXnOBCgka7Jv-17" value="" style="outlineConnect=0;dashed=0;verticalLabelPosition=bottom;verticalAlign=top;align=center;html=1;shape=mxgraph.aws3.codebuild;fillColor=#759C3E;gradientColor=none;" parent="1" vertex="1">
          <mxGeometry x="591.42" y="518.85" width="35.37" height="43" as="geometry" />
        </mxCell>
        <mxCell id="CeHKK5YrfXnOBCgka7Jv-18" style="edgeStyle=orthogonalEdgeStyle;rounded=0;orthogonalLoop=1;jettySize=auto;html=1;exitX=1;exitY=0.5;exitDx=0;exitDy=0;" parent="1" source="tQTTjKAgbpAH1Arpb6nN-1" target="tQTTjKAgbpAH1Arpb6nN-12" edge="1">
          <mxGeometry relative="1" as="geometry">
            <mxPoint x="468.2094117647059" y="168.35000000000005" as="sourcePoint" />
            <mxPoint x="549.79" y="219.35" as="targetPoint" />
          </mxGeometry>
        </mxCell>
        <mxCell id="CeHKK5YrfXnOBCgka7Jv-19" style="edgeStyle=orthogonalEdgeStyle;rounded=0;orthogonalLoop=1;jettySize=auto;html=1;entryX=0;entryY=0.5;entryDx=0;entryDy=0;exitX=1;exitY=0.5;exitDx=0;exitDy=0;" parent="1" source="tQTTjKAgbpAH1Arpb6nN-1" target="tQTTjKAgbpAH1Arpb6nN-7" edge="1">
          <mxGeometry relative="1" as="geometry">
            <mxPoint x="466.2394117647059" y="220.05000000000004" as="sourcePoint" />
            <mxPoint x="554.9760784313726" y="386.51123287671226" as="targetPoint" />
          </mxGeometry>
        </mxCell>
        <mxCell id="CeHKK5YrfXnOBCgka7Jv-21" style="edgeStyle=orthogonalEdgeStyle;rounded=0;orthogonalLoop=1;jettySize=auto;html=1;" parent="1" source="CeHKK5YrfXnOBCgka7Jv-22" target="tQTTjKAgbpAH1Arpb6nN-26" edge="1">
          <mxGeometry relative="1" as="geometry">
            <mxPoint x="908.6674509803925" y="308.35219178082207" as="targetPoint" />
          </mxGeometry>
        </mxCell>
        <mxCell id="CeHKK5YrfXnOBCgka7Jv-22" value="ECS - Verificador de Noticias&lt;br&gt;- node.js" style="outlineConnect=0;dashed=0;verticalLabelPosition=bottom;verticalAlign=top;align=center;html=1;shape=mxgraph.aws3.ecs;fillColor=#F58534;gradientColor=none;" parent="1" vertex="1">
          <mxGeometry x="733" y="279.3499999999999" width="61.87" height="58" as="geometry" />
        </mxCell>
        <mxCell id="CeHKK5YrfXnOBCgka7Jv-23" value="" style="rounded=1;arcSize=10;dashed=1;fillColor=none;gradientColor=none;strokeWidth=2;dashPattern=1 1;" parent="1" vertex="1">
          <mxGeometry x="384" y="490.70000000000005" width="302" height="82" as="geometry" />
        </mxCell>
        <mxCell id="CeHKK5YrfXnOBCgka7Jv-24" value="Developer Tools" style="text;whiteSpace=wrap;html=1;" parent="1" vertex="1">
          <mxGeometry x="399.0021568627451" y="490.6950684931507" width="219.196862745098" height="28.153424657534252" as="geometry" />
        </mxCell>
        <mxCell id="CeHKK5YrfXnOBCgka7Jv-25" style="edgeStyle=orthogonalEdgeStyle;rounded=0;orthogonalLoop=1;jettySize=auto;html=1;" parent="1" source="CeHKK5YrfXnOBCgka7Jv-26" target="tQTTjKAgbpAH1Arpb6nN-18" edge="1">
          <mxGeometry relative="1" as="geometry">
            <mxPoint x="908.6674509803922" y="153.35493150684928" as="targetPoint" />
          </mxGeometry>
        </mxCell>
        <mxCell id="CeHKK5YrfXnOBCgka7Jv-26" value="&lt;span style=&quot;background-color: rgb(242 , 242 , 242)&quot;&gt;EC2 - realizarPedido&lt;br&gt;- node.js&amp;nbsp;&lt;/span&gt;" style="outlineConnect=0;dashed=0;verticalLabelPosition=bottom;verticalAlign=top;align=center;html=1;shape=mxgraph.aws3.ec2;fillColor=#F58534;gradientColor=none;dashPattern=1 1;" parent="1" vertex="1">
          <mxGeometry x="734.3199999999999" y="117.35" width="59.23" height="72" as="geometry" />
        </mxCell>
        <mxCell id="CeHKK5YrfXnOBCgka7Jv-28" value="" style="outlineConnect=0;dashed=0;verticalLabelPosition=bottom;verticalAlign=top;align=center;html=1;shape=mxgraph.aws3.cloudwatch;fillColor=#759C3E;gradientColor=none;dashPattern=1 1;" parent="1" vertex="1">
          <mxGeometry x="637" y="510.5200000000001" width="42.41" height="53.83" as="geometry" />
        </mxCell>
        <mxCell id="CeHKK5YrfXnOBCgka7Jv-29" style="edgeStyle=orthogonalEdgeStyle;rounded=0;orthogonalLoop=1;jettySize=auto;html=1;entryX=0;entryY=0.5;entryDx=0;entryDy=0;" parent="1" source="CeHKK5YrfXnOBCgka7Jv-30" target="tQTTjKAgbpAH1Arpb6nN-1" edge="1">
          <mxGeometry relative="1" as="geometry">
            <mxPoint x="434.2447137254901" y="220.0126027397259" as="targetPoint" />
          </mxGeometry>
        </mxCell>
        <mxCell id="CeHKK5YrfXnOBCgka7Jv-30" value="" style="outlineConnect=0;dashed=0;verticalLabelPosition=bottom;verticalAlign=top;align=center;html=1;shape=mxgraph.aws3.mobile_client;fillColor=#D2D3D3;gradientColor=none;dashPattern=1 1;" parent="1" vertex="1">
          <mxGeometry x="297" y="168.35" width="40.5" height="63" as="geometry" />
        </mxCell>
        <mxCell id="CeHKK5YrfXnOBCgka7Jv-31" style="edgeStyle=orthogonalEdgeStyle;rounded=0;orthogonalLoop=1;jettySize=auto;html=1;entryX=0;entryY=0.5;entryDx=0;entryDy=0;" parent="1" source="CeHKK5YrfXnOBCgka7Jv-32" target="tQTTjKAgbpAH1Arpb6nN-1" edge="1">
          <mxGeometry relative="1" as="geometry">
            <mxPoint x="423.00333333333333" y="220.05000000000004" as="targetPoint" />
          </mxGeometry>
        </mxCell>
        <mxCell id="CeHKK5YrfXnOBCgka7Jv-32" value="" style="verticalLabelPosition=bottom;html=1;verticalAlign=top;align=center;strokeColor=none;fillColor=#00BEF2;shape=mxgraph.azure.laptop;pointerEvents=1;dashed=1;dashPattern=1 1;" parent="1" vertex="1">
          <mxGeometry x="290" y="242.35" width="60" height="36" as="geometry" />
        </mxCell>
        <mxCell id="tQTTjKAgbpAH1Arpb6nN-1" value="Web UI - Angular" style="shape=image;html=1;verticalAlign=top;verticalLabelPosition=bottom;labelBackgroundColor=#ffffff;imageAspect=0;aspect=fixed;image=https://cdn4.iconfinder.com/data/icons/logos-and-brands/512/21_Angular_logo_logos-128.png" vertex="1" parent="1">
          <mxGeometry x="412" y="189.35000000000002" width="60" height="60" as="geometry" />
        </mxCell>
        <mxCell id="tQTTjKAgbpAH1Arpb6nN-7" value="Google OAuth" style="shape=image;html=1;verticalAlign=top;verticalLabelPosition=bottom;labelBackgroundColor=#ffffff;imageAspect=0;aspect=fixed;image=https://cdn1.iconfinder.com/data/icons/social-networks-15/512/gogle_network_logo-128.png" vertex="1" parent="1">
          <mxGeometry x="550.79" y="298.58000000000004" width="59" height="59" as="geometry" />
        </mxCell>
        <mxCell id="tQTTjKAgbpAH1Arpb6nN-24" style="edgeStyle=orthogonalEdgeStyle;rounded=0;orthogonalLoop=1;jettySize=auto;html=1;exitX=1;exitY=0.5;exitDx=0;exitDy=0;entryX=0;entryY=0.5;entryDx=0;entryDy=0;entryPerimeter=0;" edge="1" parent="1" source="tQTTjKAgbpAH1Arpb6nN-8" target="CeHKK5YrfXnOBCgka7Jv-22">
          <mxGeometry relative="1" as="geometry">
            <Array as="points">
              <mxPoint x="670" y="426" />
              <mxPoint x="670" y="308" />
            </Array>
          </mxGeometry>
        </mxCell>
        <mxCell id="tQTTjKAgbpAH1Arpb6nN-8" value="News Api" style="shape=image;html=1;verticalAlign=top;verticalLabelPosition=bottom;labelBackgroundColor=#ffffff;imageAspect=0;aspect=fixed;image=https://cdn3.iconfinder.com/data/icons/linecons-free-vector-icons-pack/32/news-128.png" vertex="1" parent="1">
          <mxGeometry x="550.79" y="396.35" width="59" height="59" as="geometry" />
        </mxCell>
        <mxCell id="tQTTjKAgbpAH1Arpb6nN-13" style="edgeStyle=orthogonalEdgeStyle;rounded=0;orthogonalLoop=1;jettySize=auto;html=1;entryX=0;entryY=0.5;entryDx=0;entryDy=0;entryPerimeter=0;" edge="1" parent="1" source="tQTTjKAgbpAH1Arpb6nN-12" target="CeHKK5YrfXnOBCgka7Jv-7">
          <mxGeometry relative="1" as="geometry" />
        </mxCell>
        <mxCell id="tQTTjKAgbpAH1Arpb6nN-12" value="&lt;span style=&quot;background-color: rgb(255 , 255 , 255)&quot;&gt;Amazon API Gateway&lt;/span&gt;" style="outlineConnect=0;dashed=0;verticalLabelPosition=bottom;verticalAlign=top;align=center;html=1;shape=mxgraph.aws3.api_gateway;fillColor=#D9A741;gradientColor=none;" vertex="1" parent="1">
          <mxGeometry x="554.69" y="189.35" width="51.21" height="59.5" as="geometry" />
        </mxCell>
        <mxCell id="tQTTjKAgbpAH1Arpb6nN-18" value="MongoDB -&amp;nbsp;&lt;br&gt;Catalogo de noticias" style="dashed=0;outlineConnect=0;html=1;align=center;labelPosition=center;verticalLabelPosition=bottom;verticalAlign=top;shape=mxgraph.weblogos.mongodb" vertex="1" parent="1">
          <mxGeometry x="913.3399999999999" y="120.35" width="30" height="66" as="geometry" />
        </mxCell>
        <mxCell id="tQTTjKAgbpAH1Arpb6nN-19" value="&lt;span style=&quot;background-color: rgb(248 , 249 , 250)&quot;&gt;Firebase -&amp;nbsp;&lt;/span&gt;&lt;br style=&quot;background-color: rgb(248 , 249 , 250)&quot;&gt;&lt;span style=&quot;background-color: rgb(248 , 249 , 250)&quot;&gt;Clientes&lt;/span&gt;" style="shape=image;html=1;verticalAlign=top;verticalLabelPosition=bottom;labelBackgroundColor=#ffffff;imageAspect=0;aspect=fixed;image=https://cdn4.iconfinder.com/data/icons/google-i-o-2016/512/google_firebase-128.png" vertex="1" parent="1">
          <mxGeometry x="897.9100000000001" y="430.06" width="60.86" height="60.86" as="geometry" />
        </mxCell>
        <mxCell id="tQTTjKAgbpAH1Arpb6nN-23" value="" style="edgeStyle=orthogonalEdgeStyle;rounded=0;orthogonalLoop=1;jettySize=auto;html=1;" edge="1" parent="1" source="tQTTjKAgbpAH1Arpb6nN-22" target="tQTTjKAgbpAH1Arpb6nN-8">
          <mxGeometry relative="1" as="geometry" />
        </mxCell>
        <mxCell id="tQTTjKAgbpAH1Arpb6nN-22" value="Comparador - Angular" style="shape=image;html=1;verticalAlign=top;verticalLabelPosition=bottom;labelBackgroundColor=#ffffff;imageAspect=0;aspect=fixed;image=https://cdn4.iconfinder.com/data/icons/logos-and-brands/512/21_Angular_logo_logos-128.png" vertex="1" parent="1">
          <mxGeometry x="412" y="396.35" width="60" height="60" as="geometry" />
        </mxCell>
        <mxCell id="tQTTjKAgbpAH1Arpb6nN-26" value="Amazon Comprehend" style="outlineConnect=0;fontColor=#232F3E;gradientColor=none;strokeColor=#ffffff;fillColor=#232F3E;dashed=0;verticalLabelPosition=middle;verticalAlign=bottom;align=center;html=1;whiteSpace=wrap;fontSize=10;fontStyle=1;spacing=3;shape=mxgraph.aws4.productIcon;prIcon=mxgraph.aws4.comprehend;" vertex="1" parent="1">
          <mxGeometry x="895.01" y="258.35" width="66.66" height="100" as="geometry" />
        </mxCell>
      </root>
    </mxGraphModel>
  </diagram>
</mxfile>
